<svg xmlns="http://www.w3.org/2000/svg" viewBox="0 0 280 60" fill="none">
  <rect x="2" y="4" width="52" height="52" rx="12" fill="url(#grad3)"/>
  <defs>
    <linearGradient id="grad3" x1="2" y1="4" x2="54" y2="56">
      <stop offset="0%" stop-color="#3b82f6"/>
      <stop offset="100%" stop-color="#1d4ed8"/>
    </linearGradient>
  </defs>
  <rect x="10" y="14" width="14" height="18" rx="2" fill="white" opacity="0.85"/>
  <rect x="30" y="14" width="14" height="18" rx="2" fill="white" opacity="0.85"/>
  <rect x="13" y="18" width="3" height="3" rx="0.5" fill="#3b82f6"/>
  <rect x="20" y="18" width="3" height="3" rx="0.5" fill="#3b82f6"/>
  <rect x="33" y="18" width="3" height="3" rx="0.5" fill="#3b82f6"/>
  <rect x="40" y="18" width="3" height="3" rx="0.5" fill="#3b82f6"/>
  <rect x="13" y="25" width="3" height="3" rx="0.5" fill="#3b82f6"/>
  <rect x="20" y="25" width="3" height="3" rx="0.5" fill="#3b82f6"/>
  <rect x="33" y="25" width="3" height="3" rx="0.5" fill="#3b82f6"/>
  <rect x="40" y="25" width="3" height="3" rx="0.5" fill="#3b82f6"/>
  <rect x="19" y="36" width="16" height="12" rx="2" fill="white" opacity="0.85"/>
  <rect x="24" y="39" width="6" height="9" rx="1" fill="#3b82f6"/>
  <text x="66" y="38" font-family="system-ui, -apple-system, sans-serif" font-size="30" font-weight="700" fill="#1e293b">Hoste</text>
  <text x="166" y="38" font-family="system-ui, -apple-system, sans-serif" font-size="30" font-weight="700" fill="#2563eb">rix</text>
  <path d="M66 44L166 44" stroke="#2563eb" stroke-width="2" stroke-linecap="round" opacity="0.3"/>
</svg>