<svg xmlns="http://www.w3.org/2000/svg" viewBox="0 0 280 60" fill="none">
  <rect x="4" y="6" width="48" height="48" rx="8" fill="#0f172a"/>
  <rect x="12" y="14" width="10" height="14" rx="2" fill="none" stroke="#3b82f6" stroke-width="2"/>
  <rect x="28" y="14" width="10" height="14" rx="2" fill="none" stroke="#3b82f6" stroke-width="2"/>
  <rect x="14" y="17" width="2.5" height="2.5" rx="0.5" fill="#3b82f6"/>
  <rect x="18" y="17" width="2.5" height="2.5" rx="0.5" fill="#3b82f6"/>
  <rect x="30" y="17" width="2.5" height="2.5" rx="0.5" fill="#3b82f6"/>
  <rect x="34" y="17" width="2.5" height="2.5" rx="0.5" fill="#3b82f6"/>
  <rect x="14" y="23" width="2.5" height="2.5" rx="0.5" fill="#3b82f6"/>
  <rect x="18" y="23" width="2.5" height="2.5" rx="0.5" fill="#3b82f6"/>
  <rect x="30" y="23" width="2.5" height="2.5" rx="0.5" fill="#3b82f6"/>
  <rect x="34" y="23" width="2.5" height="2.5" rx="0.5" fill="#3b82f6"/>
  <rect x="20" y="32" width="12" height="10" rx="2" fill="none" stroke="#3b82f6" stroke-width="2"/>
  <rect x="23" y="35" width="6" height="7" rx="1" fill="#3b82f6" opacity="0.6"/>
  <text x="62" y="30" font-family="'Courier New', monospace" font-size="28" font-weight="700" fill="#0f172a">&lt;Hoste</text>
  <text x="178" y="30" font-family="'Courier New', monospace" font-size="28" font-weight="700" fill="#2563eb">rix</text>
  <text x="208" y="30" font-family="'Courier New', monospace" font-size="28" font-weight="700" fill="#0f172a">/&gt;</text>
  <text x="62" y="48" font-family="system-ui, -apple-system, sans-serif" font-size="10" font-weight="500" fill="#64748b" letter-spacing="3">SMART HOTEL OPS</text>
</svg>