<svg xmlns="http://www.w3.org/2000/svg" viewBox="0 0 280 60" fill="none">
  <rect x="2" y="6" width="48" height="48" rx="24" fill="#2563eb"/>
  <path d="M26 12L14 24H20V36H32V24H38L26 12Z" fill="white" opacity="0.15"/>
  <rect x="14" y="18" width="10" height="14" rx="2" fill="white"/>
  <rect x="28" y="18" width="10" height="14" rx="2" fill="white"/>
  <rect x="16" y="21" width="2.5" height="2.5" rx="0.5" fill="#2563eb"/>
  <rect x="20" y="21" width="2.5" height="2.5" rx="0.5" fill="#2563eb"/>
  <rect x="30" y="21" width="2.5" height="2.5" rx="0.5" fill="#2563eb"/>
  <rect x="34" y="21" width="2.5" height="2.5" rx="0.5" fill="#2563eb"/>
  <rect x="16" y="27" width="2.5" height="2.5" rx="0.5" fill="#2563eb"/>
  <rect x="20" y="27" width="2.5" height="2.5" rx="0.5" fill="#2563eb"/>
  <rect x="30" y="27" width="2.5" height="2.5" rx="0.5" fill="#2563eb"/>
  <rect x="34" y="27" width="2.5" height="2.5" rx="0.5" fill="#2563eb"/>
  <rect x="21" y="34" width="10" height="10" rx="2" fill="white"/>
  <rect x="24" y="37" width="4" height="7" rx="1" fill="#2563eb"/>
  <text x="62" y="42" font-family="system-ui, -apple-system, sans-serif" font-size="36" font-weight="800" fill="#0f172a">Hosterix</text>
</svg>